<svg width="50" height="50" viewBox="0 0 50 50" fill="none" xmlns="http://www.w3.org/2000/svg">
<g clip-path="url(#clip0_66_24)">
<path d="M25 50C38.8071 50 50 38.8071 50 25C50 11.1929 38.8071 0 25 0C11.1929 0 0 11.1929 0 25C0 38.8071 11.1929 50 25 50Z" fill="white"/>
<path d="M22.2503 26.3848C22.9378 27.2147 22.3092 27.6027 22.3092 27.6027C21.3664 28.3393 20.4432 29.0431 19.5396 29.7143L17.87 30.937L17.3151 31.3544C15.0038 33.3743 13.2786 34.3826 12.1393 34.3794C11.5882 34.3721 11.0479 34.2262 10.5681 33.9549C10.0883 33.6837 9.68462 33.296 9.39426 32.8276C8.61233 31.6709 8.22166 30.2941 8.27954 28.8991C8.29238 27.8431 8.45778 26.7945 8.77061 25.7858C9.12749 24.6197 9.62204 23.5004 10.2438 22.4514C10.9215 21.2767 11.7109 20.1699 12.6009 19.1466C13.5182 18.0752 14.5307 17.089 15.6258 16.2002C17.3951 14.8173 19.3004 13.6179 21.3123 12.6204C23.2049 11.6394 25.1759 10.8181 27.2051 10.165C28.5005 9.70749 29.8516 9.42669 31.222 9.33024C31.6554 9.3072 32.0831 9.4376 32.43 9.69854C32.7359 9.95406 32.9569 10.2966 33.0635 10.6807C33.1926 11.1107 33.2572 11.5575 33.255 12.0065C33.2461 12.4597 33.1081 12.9009 32.8572 13.2784C32.3018 14.0043 31.6115 14.6162 30.8242 15.0806C29.875 15.6948 28.8913 16.2539 27.8779 16.7551C27.3415 17.0575 26.7733 17.2996 26.1837 17.477C26.1051 17.477 26.0658 17.4524 26.0658 17.3984C26.0658 17.3444 26.2181 17.089 26.5225 16.8239C26.827 16.5587 27.1658 16.2837 27.539 16.0087C28.2568 15.546 28.7807 14.837 29.0122 14.015C27.6951 14.3838 26.4094 14.8567 25.1672 15.4292C23.8577 16.0339 22.594 16.7331 21.386 17.5212C20.0846 18.3672 18.8351 19.2904 17.6441 20.2859C16.3179 21.3837 15.1143 22.6218 14.0544 23.9786C13.1795 25.078 12.4255 26.2683 11.8054 27.529C11.3842 28.3056 11.1236 29.159 11.0393 30.0384C11.0318 30.4583 11.1806 30.8661 11.4567 31.1825C11.5968 31.3444 11.7715 31.4725 11.9678 31.5576C12.1642 31.6426 12.3772 31.6822 12.5911 31.6736C13.3342 31.6127 14.0485 31.3588 14.6634 30.937C15.687 30.3198 16.6711 29.6392 17.6097 28.8991C18.6606 28.0692 19.6427 27.2835 20.5561 26.5174C20.5561 26.5174 21.553 25.7612 22.2503 26.3848Z" fill="#1C1C1C"/>
<path d="M20.978 33.6623C20.3249 33.3971 19.9222 33.2204 19.765 33.132C19.6881 33.0786 19.6293 33.0029 19.5968 32.9151C19.5643 32.8272 19.5596 32.7315 19.5834 32.6409C19.6993 32.2176 19.8961 31.8207 20.1628 31.4722C20.3695 31.1427 20.6027 30.8307 20.8601 30.5392C21.0149 30.377 21.2001 30.2468 21.4052 30.1561C21.6161 30.0594 21.8391 29.9916 22.0681 29.9548L24.0324 29.7043L26.2864 29.3262C28.6074 28.8843 30.5897 28.4587 32.2331 28.0495C33.6085 27.7237 34.9617 27.3103 36.2844 26.812C37.1484 26.5087 37.9577 26.0676 38.6808 25.5058C38.9124 25.339 39.1043 25.1231 39.2427 24.8735C39.3811 24.6239 39.4625 24.3468 39.4812 24.062C39.4812 23.512 38.9165 23.0799 37.7969 22.7607C36.4518 22.4127 35.066 22.2475 33.6769 22.2697C33.3429 22.2697 32.9943 22.2697 32.626 22.2697C32.2577 22.2697 31.8108 22.3188 31.2952 22.3679C30.7796 22.417 30.4555 22.4514 30.3131 22.4612L29.2671 22.6281C27.5287 22.8589 26.3207 23.0554 25.6332 23.2076L23.8016 23.5661C23.4514 23.6261 23.1053 23.7081 22.7654 23.8116C22.569 23.8853 22.4659 23.9884 22.4659 24.121C22.4659 24.2535 22.5887 24.3223 22.8342 24.3665C23.1377 24.4164 23.445 24.4394 23.7525 24.4352C24.0411 24.4321 24.3296 24.4452 24.6167 24.4745C24.8181 24.504 24.9212 24.5678 24.9212 24.666C24.9212 24.7643 24.7886 24.8428 24.5136 24.8576C24.2386 24.8723 23.4873 24.9116 22.2351 24.9656C21.528 24.9656 20.9338 25.0098 20.4525 25.0294C19.9713 25.0491 19.6374 25.0638 19.4704 25.0638C19.36 25.0694 19.2496 25.0517 19.1464 25.012C19.0432 24.9722 18.9495 24.9112 18.8713 24.833C18.7351 24.6745 18.6602 24.4724 18.6602 24.2634C18.711 23.9001 18.8187 23.5472 18.9793 23.2174C19.2111 22.6678 19.5114 22.1498 19.8731 21.6755C20.2271 21.1857 20.6785 20.7745 21.1989 20.4675C22.0293 20.0165 22.9115 19.6686 23.8261 19.4313C25.1256 19.0572 26.4499 18.7749 27.789 18.5867C29.2195 18.3723 30.6639 18.264 32.1104 18.2626C32.9555 18.2617 33.8 18.3109 34.6393 18.4099C35.4594 18.5081 36.2058 18.6309 36.8786 18.7733C37.4144 18.8833 37.9425 19.0277 38.4598 19.2054C39.3569 19.4723 40.1559 19.9964 40.758 20.713C41.2753 21.3392 41.5599 22.1252 41.5633 22.9375C41.5632 23.7199 41.4253 24.4962 41.1557 25.2308C40.8739 25.9942 40.4526 26.6985 39.9133 27.308C39.3462 27.9464 38.663 28.4713 37.9 28.8548C36.9556 29.2931 35.9681 29.6322 34.9536 29.8664C33.3975 30.2599 31.8203 30.5648 30.2296 30.7798C28.4094 31.0449 26.3535 31.2381 24.0618 31.3592C25.7609 31.9583 27.3487 32.5574 28.8252 33.1565C30.3016 33.7556 31.5456 34.2925 32.5572 34.7672C33.5688 35.2386 34.3627 35.6233 34.9389 35.9212C35.4841 36.1854 36.0093 36.489 36.5103 36.8297C36.7544 37.0087 36.9281 37.2676 37.0013 37.5613C37.0968 38.0463 37.1363 38.5406 37.1192 39.0345C37.1367 39.611 37.0889 40.1875 36.9768 40.7533C36.8835 41.1216 36.6822 41.3082 36.3728 41.3082C36.096 41.2405 35.8311 41.1312 35.5871 40.9841C35.1582 40.768 34.569 40.4537 33.8193 40.0412C33.0679 39.6238 32.3854 39.2555 31.7715 38.9265C31.1577 38.5975 30.1903 38.1212 28.8595 37.4533L22.5887 34.4284L20.978 33.6623Z" fill="#1C1C1C"/>
<path d="M20.5509 35.8476C20.0928 36.4866 19.7213 37.1834 19.446 37.9199C19.3036 38.4275 18.9895 38.8701 18.5572 39.1721C18.2777 39.4178 17.9394 39.587 17.5751 39.6631C17.0104 39.6631 16.7305 39.4471 16.7305 39.0149C16.7305 38.7743 17.0644 38.0721 17.7126 36.9181C18.04 36.3485 18.4312 35.7297 18.8862 35.0619" fill="#1C1C1C"/>
</g>
<defs>
<clipPath id="clip0_66_24">
<rect width="50" height="50" fill="white"/>
</clipPath>
</defs>
</svg>
